<?xml version="1.0" encoding="UTF-8" standalone="no"?>
<svg
   xmlns:dc="http://purl.org/dc/elements/1.1/"
   xmlns:cc="http://creativecommons.org/ns#"
   xmlns:rdf="http://www.w3.org/1999/02/22-rdf-syntax-ns#"
   xmlns:svg="http://www.w3.org/2000/svg"
   xmlns="http://www.w3.org/2000/svg"
   xmlns:sodipodi="http://sodipodi.sourceforge.net/DTD/sodipodi-0.dtd"
   xmlns:inkscape="http://www.inkscape.org/namespaces/inkscape"
   version="1.1"
   x="0px"
   y="0px"
   viewBox="0 0 61.030727 57.841999"
   enable-background="new 0 0 100 100"
   xml:space="preserve"
   id="svg3686"
   sodipodi:docname="lang_sz.svg"
   inkscape:version="0.92.1 r15371"
   width="61.030727"
   height="57.841999"><metadata
   id="metadata3692"><rdf:RDF><cc:Work
       rdf:about=""><dc:format>image/svg+xml</dc:format><dc:type
         rdf:resource="http://purl.org/dc/dcmitype/StillImage" /><dc:title></dc:title></cc:Work></rdf:RDF></metadata><defs
   id="defs3690" /><sodipodi:namedview
   pagecolor="#ffffff"
   bordercolor="#666666"
   borderopacity="1"
   objecttolerance="10"
   gridtolerance="10"
   guidetolerance="10"
   inkscape:pageopacity="0"
   inkscape:pageshadow="2"
   inkscape:window-width="955"
   inkscape:window-height="598"
   id="namedview3688"
   showgrid="false"
   inkscape:zoom="3.95"
   inkscape:cx="31.649201"
   inkscape:cy="21.308666"
   inkscape:window-x="30"
   inkscape:window-y="30"
   inkscape:window-maximized="0"
   inkscape:current-layer="svg3686" /><path
   d="M 49.238864,0 H 11.790989 C 5.2894399,0 0,6.058 0,13.504 v 30.835 c 0,7.445 5.2894399,13.503 11.790989,13.503 h 37.448748 c 6.50155,0 11.790992,-6.058 11.790992,-13.503 V 13.504 C 61.03012,6.058 55.741287,0 49.238864,0 Z m 0,53.963 H 11.790989 c -4.6327358,0 -8.403547,-4.317 -8.403547,-9.624 V 13.504 c 0,-5.308 3.7708112,-9.625 8.403547,-9.625 h 37.448748 c 4.632736,0 8.403547,4.317 8.403547,9.625 v 30.835 c -9.13e-4,5.307 -3.771684,9.624 -8.40442,9.624 z"
   id="path3680"
   inkscape:connector-curvature="0"
   style="fill:#008080;fill-opacity:1;stroke-width:0.93449306" /><text
   xml:space="preserve"
   style="font-style:normal;font-weight:normal;font-size:40px;line-height:1.25;font-family:sans-serif;letter-spacing:0px;word-spacing:0px;fill:#000000;fill-opacity:1;stroke:none"
   x="8.728426"
   y="47.74691"
   id="text3696"><tspan
     sodipodi:role="line"
     id="tspan3694"
     x="8.728426"
     y="83.137535" /></text>


<g
   aria-label="吳蘇"
   transform="scale(0.83443068,1.1984219)"
   style="font-style:normal;font-weight:normal;font-size:33.37722778px;line-height:1.25;font-family:sans-serif;letter-spacing:0px;word-spacing:0px;fill:#008080;fill-opacity:1;stroke:none;stroke-width:0.83443069"
   id="text3700"><path
     d="m 12.442554,23.375631 q 2.477216,-0.52152 6.38861,-1.303798 3.911394,-0.912659 4.563293,-1.303798 0.651899,-0.39114 1.694937,0.130379 1.173418,0.39114 1.955697,1.173419 0.912658,0.651899 0,1.303798 -0.912659,0.651899 -2.216457,3.259495 3.650635,-0.651899 5.084812,-0.651899 1.434178,-0.13038 2.216457,1.043038 0.782279,1.043038 -1.825317,0.912658 -2.477216,-0.130379 -5.215192,0.13038 -2.607596,0.13038 -5.997471,0.39114 3.781014,3.781014 5.997471,5.345571 2.216457,1.434178 4.432913,2.086077 2.216457,0.651899 3.389875,1.043038 1.303798,0.52152 -1.303798,0.782279 -2.607596,0.26076 -4.432913,0.13038 -1.825317,-0.13038 -2.737976,-1.173418 -0.782279,-0.912659 -2.737976,-3.259495 -1.825317,-2.346836 -3.259495,-4.302533 -0.912658,3.129115 -2.737975,5.084812 -1.825317,1.955697 -4.302534,2.868355 -2.3468359,0.912659 -3.9113935,0.912659 -1.4341777,0 0.2607596,-0.651899 1.8253171,-0.651899 3.5202549,-1.564558 1.694937,-1.043038 2.998735,-2.607596 1.434178,-1.694937 2.346836,-4.432913 -2.737975,0.39114 -4.432913,0.651899 -1.694937,0.26076 -2.9987351,0.521519 -1.1734182,0.26076 -2.607596,-0.651899 -1.3037979,-0.912658 0.2607596,-0.782278 1.6949374,0 4.0417735,-0.26076 2.346837,-0.26076 5.997471,-0.782279 0.521519,-2.477216 0.13038,-3.911394 -1.694938,0.39114 -2.868356,0.912659 -1.173418,0.391139 -1.825317,0.912659 -0.521519,0.521519 -1.173418,-0.26076 -0.651899,-0.912659 -0.39114,-1.694937 0.39114,-0.782279 0.13038,-2.346837 -0.260759,-1.694937 -1.0430382,-2.607596 -0.6518989,-0.912658 0.3911392,-0.651899 1.043039,0.13038 1.825317,0.52152 0.782279,0.391139 0.52152,1.303798 -0.13038,0.782278 -0.13038,3.781014 z m 10.951903,-6.51899 q 1.434177,1.303798 0.260759,1.434178 l -2.998735,0.391139 q -1.694937,0.13038 -4.041774,0.521519 -0.521519,1.564558 -1.043038,0.39114 -0.521519,-1.173419 -1.173418,-3.389875 -0.521519,-2.216457 -1.303798,-2.998735 -0.651899,-0.912659 0.260759,-0.912659 1.043039,0 1.694938,0.391139 0.651899,0.26076 3.129115,-0.260759 2.607596,-0.651899 3.389874,-1.173418 0.912659,-0.651899 1.825318,-0.26076 0.912658,0.26076 1.825317,1.173418 1.043038,0.782279 0.13038,1.303798 -0.912659,0.521519 -1.955697,3.389875 z m -7.562029,-2.998735 q 0.26076,1.564557 0.651899,4.302533 2.998736,-0.651899 5.345572,-1.173418 0.26076,-2.346837 0.13038,-3.129115 -0.13038,-0.912659 -1.303798,-0.782279 -1.043038,0.13038 -4.824053,0.782279 z m 2.737976,9.387345 q 1.303798,1.173418 0.912659,1.825317 -0.39114,0.521519 -0.651899,2.216456 2.477216,-0.260759 4.172153,-0.521519 0.782279,-2.868355 0.521519,-3.650634 -0.130379,-0.782279 -1.303798,-0.651899 -1.173418,0.13038 -3.650634,0.782279 z"
     style="font-style:normal;font-variant:normal;font-weight:normal;font-stretch:normal;font-family:KaiTi;-inkscape-font-specification:KaiTi;fill:#008080;fill-opacity:1;stroke-width:0.83443069"
     id="path5602" /><path
     d="m 54.424848,25.331328 q -1.564557,0.260759 -2.086077,0.391139 -0.391139,0 -1.434177,-0.521519 -1.043039,-0.651899 -0.26076,-0.651899 0.782279,-0.13038 2.086077,-0.26076 1.434177,-0.13038 2.607596,-0.260759 -0.13038,-2.346837 -0.651899,-2.998736 -1.043039,0.39114 -1.825317,0.651899 -0.651899,0.26076 -0.782279,0.13038 -0.13038,-0.13038 0.782279,-0.651899 0.912658,-0.651899 1.955696,-1.564557 1.173419,-1.043039 1.564558,-1.434178 0.521519,-0.521519 0.521519,-1.043039 0.13038,-0.521519 1.434178,0.13038 1.303798,0.651899 1.564558,1.043039 0.260759,0.391139 -0.39114,0.521519 -0.521519,0 -4.041774,1.955697 0.782279,0.260759 1.043039,0.521519 0.391139,0.260759 0.260759,0.782279 0,0.521519 0,1.694937 2.998736,-0.391139 3.781014,-0.651899 0.782279,-0.26076 1.564558,0.26076 0.782279,0.521519 0.521519,0.912658 -0.260759,0.26076 -1.564557,0.39114 -1.303798,0 -4.302534,0.260759 v 0.651899 q 1.825318,2.086077 3.781014,3.781014 1.955697,1.694938 3.911394,2.737976 2.086077,1.043038 2.868356,1.434178 0.782279,0.260759 0.782279,0.521519 0,0.13038 -0.912659,0.13038 h -2.346836 q -1.303798,0 -2.216457,-0.26076 -0.782279,-0.391139 -2.868355,-3.129115 -2.086077,-2.868356 -2.998736,-3.650634 0.13038,2.998735 0.13038,5.99747 0,2.998736 -0.260759,4.172154 -0.13038,1.173418 -0.52152,1.564557 -0.260759,0.39114 -0.912658,-0.912658 -0.521519,-1.303798 -0.26076,-2.477216 0.39114,-1.173419 0.39114,-2.607596 0.130379,-1.564558 0.130379,-5.997471 -2.216456,3.520255 -3.781014,5.084812 -1.434177,1.564558 -2.737975,2.346836 -1.173419,0.782279 -1.694938,0.782279 -0.391139,-0.13038 0.26076,-0.521519 0.651899,-0.521519 2.086077,-2.216456 1.564557,-1.694938 2.477216,-3.129116 0.912658,-1.434177 2.346836,-3.911393 z M 44.124844,23.63639 q 1.434178,-2.216456 1.564558,-2.868355 0.260759,-0.782279 -0.13038,-0.782279 -0.391139,0 -1.043038,-0.13038 -1.694938,1.825317 -2.737976,2.607596 -1.043039,0.651899 -1.564558,0.651899 -0.391139,0 0.651899,-0.912659 1.043039,-1.043038 1.694938,-2.346836 0.651899,-1.303798 0.521519,-1.955697 -0.13038,-0.782279 0.651899,-0.521519 0.912658,0.26076 1.564557,0.651899 0.651899,0.26076 0.26076,0.521519 -0.26076,0.26076 -0.651899,0.651899 1.043038,0 1.434178,-0.13038 0.521519,-0.260759 1.303798,0 0.782278,0.26076 1.173418,0.782279 0.391139,0.39114 -0.26076,0.651899 -0.521519,0.26076 -1.434177,1.043038 -0.912659,0.651899 -1.955697,1.955697 1.564557,-0.260759 1.955697,-0.391139 0.391139,-0.26076 1.043038,0 0.651899,0.26076 1.173418,0.782279 0.651899,0.521519 0.521519,0.782279 -0.13038,0.130379 -0.391139,0.391139 -0.26076,0.26076 -0.651899,1.303798 -0.26076,1.043038 -0.651899,2.086077 -0.26076,0.912658 -0.782279,1.564557 -0.521519,0.651899 -0.782279,0.651899 -0.130379,0 -0.260759,-0.13038 l -0.13038,-0.391139 q -2.346836,0.13038 -4.954432,0.521519 -0.13038,0.782279 -0.52152,0.912659 -0.391139,0 -0.651898,-0.782279 -0.26076,-0.912659 -0.782279,-3.129115 -0.521519,-2.346836 -1.043039,-2.998735 -0.391139,-0.651899 0.782279,-0.52152 1.303798,0.13038 5.084812,-0.521519 z m 10.039244,-8.605066 q -2.477216,0.130379 -4.954432,0.521519 0.13038,1.825317 -0.13038,2.346836 -0.260759,0.521519 -0.651899,-0.13038 -0.260759,-0.651899 -0.651899,-1.955697 -3.650634,0.651899 -4.563292,0.782279 -0.782279,0.13038 -1.434178,-0.13038 -0.651899,-0.391139 -1.434178,-0.782278 -0.651899,-0.52152 0.391139,-0.52152 1.043039,-0.130379 1.955697,-0.130379 1.043039,0 4.824053,-0.39114 -0.651899,-1.564557 -1.303798,-2.216456 -0.651899,-0.782279 0,-0.782279 0.782279,0 1.694937,0.26076 1.043039,0.260759 1.043039,1.043038 0,0.651899 0.130379,1.434178 2.737976,-0.26076 5.345572,-0.39114 0.391139,-1.564557 0.391139,-2.216456 0,-0.651899 -0.260759,-1.303798 -0.26076,-0.6518992 0.521519,-0.5215194 0.782279,0.1303794 1.694937,0.6518994 0.912659,0.521519 0.39114,1.043038 -0.39114,0.521519 -1.043039,2.216457 3.650635,-0.39114 4.563293,-0.52152 0.912659,-0.130379 1.825317,0.39114 0.912659,0.391139 0.912659,0.782278 0,0.39114 -1.173418,0.39114 -1.043039,-0.13038 -2.607596,-0.13038 h -3.911394 q -1.173418,2.737976 -1.564558,2.868356 -0.260759,0.130379 -0.391139,-0.26076 0,-0.391139 0.391139,-2.346836 z M 41.126109,29.89462 q 1.173418,-0.260759 2.216456,-0.391139 v -1.694937 q -1.173418,0.130379 -1.694937,-0.13038 -0.391139,-0.39114 0.13038,-0.39114 0.651899,-0.130379 1.564557,-0.391139 0,-1.043038 -0.130379,-2.086077 -1.303798,0 -2.737976,0.26076 l 0.391139,3.129115 q 0.13038,1.043038 0.26076,1.694937 z m 5.215192,-0.651899 q 0.521519,-1.955697 0.782279,-3.259494 0.391139,-1.303798 0.260759,-1.434178 0,-0.26076 -0.651899,-0.26076 -0.521519,0 -2.346836,0.26076 0.521519,0.521519 0.391139,0.782279 0,0.260759 -0.13038,1.173418 1.303798,-0.39114 1.434178,0 0.26076,0.260759 -0.13038,0.521519 -0.260759,0.260759 -1.434177,0.521519 v 1.825317 q 1.043038,-0.13038 1.825317,-0.13038 z m -8.735447,5.345572 q 0.651899,-0.651899 1.043039,-1.825317 0.391139,-1.173418 0.651899,-0.651899 0.260759,0.391139 0.13038,1.434178 -0.13038,0.912658 -0.39114,1.825317 -0.260759,0.782279 -0.912658,1.303798 -0.52152,0.651899 -0.912659,-0.39114 -0.26076,-1.173418 0.391139,-1.694937 z m 8.474687,-3.389875 q 0.912659,0.13038 1.564558,0.651899 0.651899,0.39114 0.651899,1.043039 0,0.521519 -0.39114,0.912658 -0.260759,0.39114 -0.651899,0.13038 -0.391139,-0.391139 -0.782278,-0.912658 -0.39114,-0.52152 -0.782279,-1.303798 -0.39114,-0.782279 0.391139,-0.52152 z m -5.215192,1.303798 q 0.912659,0.39114 1.303798,1.173419 0.521519,0.782278 0.13038,1.564557 -0.391139,0.651899 -0.912659,0.13038 -0.391139,-0.521519 -0.912658,-1.955697 -0.391139,-1.434178 0.391139,-0.912659 z m 2.477216,-0.782278 q 0.651899,0.130379 1.303798,0.651899 0.651899,0.391139 0.651899,1.043038 0,0.651899 -0.260759,1.043038 -0.26076,0.26076 -0.651899,0 -0.39114,-0.260759 -0.782279,-0.912658 -0.391139,-0.782279 -0.651899,-1.303798 -0.13038,-0.651899 0.391139,-0.521519 z"
     style="font-style:normal;font-variant:normal;font-weight:normal;font-stretch:normal;font-family:KaiTi;-inkscape-font-specification:KaiTi;fill:#008080;fill-opacity:1;stroke-width:0.83443069"
     id="path5604" /></g>

<circle
   style="fill:#008080;fill-opacity:1"
   id="path5112"
   cx="28.607594"
   cy="27.209087"
   r="1.8987342" /></svg>