<?xml version="1.0" encoding="UTF-8" standalone="no"?>
<svg
   xmlns:dc="http://purl.org/dc/elements/1.1/"
   xmlns:cc="http://creativecommons.org/ns#"
   xmlns:rdf="http://www.w3.org/1999/02/22-rdf-syntax-ns#"
   xmlns:svg="http://www.w3.org/2000/svg"
   xmlns="http://www.w3.org/2000/svg"
   xmlns:sodipodi="http://sodipodi.sourceforge.net/DTD/sodipodi-0.dtd"
   xmlns:inkscape="http://www.inkscape.org/namespaces/inkscape"
   version="1.1"
   x="0px"
   y="0px"
   viewBox="0 0 61.030727 57.841999"
   enable-background="new 0 0 100 100"
   xml:space="preserve"
   id="svg3686"
   sodipodi:docname="lang_jp_tou.svg"
   inkscape:version="0.92.1 r15371"
   width="61.030727"
   height="57.841999"><metadata
   id="metadata3692"><rdf:RDF><cc:Work
       rdf:about=""><dc:format>image/svg+xml</dc:format><dc:type
         rdf:resource="http://purl.org/dc/dcmitype/StillImage" /><dc:title></dc:title></cc:Work></rdf:RDF></metadata><defs
   id="defs3690" /><sodipodi:namedview
   pagecolor="#ffffff"
   bordercolor="#666666"
   borderopacity="1"
   objecttolerance="10"
   gridtolerance="10"
   guidetolerance="10"
   inkscape:pageopacity="0"
   inkscape:pageshadow="2"
   inkscape:window-width="955"
   inkscape:window-height="598"
   id="namedview3688"
   showgrid="false"
   inkscape:zoom="3.95"
   inkscape:cx="35.446669"
   inkscape:cy="21.308666"
   inkscape:window-x="30"
   inkscape:window-y="30"
   inkscape:window-maximized="1"
   inkscape:current-layer="svg3686" /><path
   d="M 49.238864,0 H 11.790989 C 5.2894399,0 0,6.058 0,13.504 v 30.835 c 0,7.445 5.2894399,13.503 11.790989,13.503 h 37.448748 c 6.50155,0 11.790992,-6.058 11.790992,-13.503 V 13.504 C 61.03012,6.058 55.741287,0 49.238864,0 Z m 0,53.963 H 11.790989 c -4.6327358,0 -8.403547,-4.317 -8.403547,-9.624 V 13.504 c 0,-5.308 3.7708112,-9.625 8.403547,-9.625 h 37.448748 c 4.632736,0 8.403547,4.317 8.403547,9.625 v 30.835 c -9.13e-4,5.307 -3.771684,9.624 -8.40442,9.624 z"
   id="path3680"
   inkscape:connector-curvature="0"
   style="fill:#ff0000;fill-opacity:1;stroke-width:0.93449306" /><text
   xml:space="preserve"
   style="font-style:normal;font-weight:normal;font-size:40px;line-height:1.25;font-family:sans-serif;letter-spacing:0px;word-spacing:0px;fill:#000000;fill-opacity:1;stroke:none"
   x="8.728426"
   y="47.74691"
   id="text3696"><tspan
     sodipodi:role="line"
     id="tspan3694"
     x="8.728426"
     y="83.137535" /></text>


<g
   aria-label="日唐"
   transform="scale(0.83443068,1.1984219)"
   style="font-style:normal;font-weight:normal;font-size:33.37722778px;line-height:1.25;font-family:sans-serif;letter-spacing:0px;word-spacing:0px;fill:#ff2a2a;fill-opacity:1;stroke:none;stroke-width:0.83443069"
   id="text3700"><path
     d="m 13.485592,32.893356 q -0.651899,2.868355 -1.564557,1.303798 -0.782279,-1.694938 -0.26076,-3.781014 0.651899,-2.216457 0.521519,-6.38861 0,-4.302534 -0.260759,-5.736711 -0.26076,-1.434178 -0.782279,-2.477217 -0.521519,-1.043038 0.391139,-0.651899 1.043039,0.26076 1.825317,0.39114 0.782279,0 2.477216,-0.26076 1.825318,-0.260759 3.650635,-0.651899 1.825317,-0.521519 2.607596,-1.043038 0.782278,-0.651899 2.086076,-0.13038 1.303798,0.521519 2.216457,1.303798 0.912659,0.651899 0,2.086077 -0.782279,1.303798 -0.651899,6.910129 0.13038,5.475951 0.13038,7.953168 0.13038,2.477216 -0.912659,4.432913 -0.912658,1.825317 -1.434178,-0.26076 -0.521519,-2.086077 -0.912658,-2.737976 -0.26076,-0.782278 -1.434178,-0.782278 -1.043038,-0.13038 -3.781014,0.260759 -2.607596,0.39114 -3.911394,0.26076 z m 0.39114,-8.474687 q -0.26076,3.781014 -0.39114,7.562028 3.259495,-0.13038 5.345572,-0.782279 2.216456,-0.782278 2.998735,0.26076 0.782279,0.912659 1.303798,0.782279 0.651899,-0.26076 0.651899,-5.475952 0,-5.215192 -0.13038,-8.213927 -0.13038,-2.998735 -1.173418,-3.259495 -0.912659,-0.260759 -8.996206,1.434178 0.39114,3.389875 0.39114,6.910129 1.434177,0 3.520254,-0.782279 2.086077,-0.912658 3.520255,0 1.434177,0.782279 -2.216457,1.434178 -3.520255,0.651899 -4.824052,0.13038 z"
     style="font-style:normal;font-variant:normal;font-weight:normal;font-stretch:normal;font-family:KaiTi;-inkscape-font-specification:KaiTi;fill:#ff2a2a;fill-opacity:1;stroke-width:0.83443069"
     id="path20" /><path
     d="m 47.514719,16.856641 q -0.521519,1.694937 -0.782279,3.389875 -0.260759,1.694937 -0.912658,3.781014 2.346836,0 7.562028,-0.782279 v -1.955697 q -1.043039,0.260759 -1.825317,0.391139 -0.782279,0.13038 -1.694938,-0.521519 -0.912658,-0.651899 0.26076,-0.651899 1.173418,0 3.259495,-0.391139 0,-1.955697 -0.651899,-2.737976 -0.521519,-0.782279 0.782279,-0.521519 1.303797,0.260759 1.825317,0.651899 0.521519,0.391139 0.260759,0.912658 -0.260759,0.39114 -0.391139,1.303798 2.737976,-0.651899 3.389875,-1.043038 0.782278,-0.391139 1.694937,0 0.912658,0.26076 1.564557,0.912659 0.782279,0.521519 0.13038,1.043038 -0.521519,0.391139 -0.912658,1.434178 l 2.737975,-0.39114 q 1.173419,-0.260759 1.955697,0.782279 0.782279,0.912659 -0.651899,0.912659 -1.303798,0 -4.693672,0.260759 -0.26076,0.521519 -0.651899,2.086077 1.303798,1.434178 0.260759,1.564557 -0.912658,0 -5.084812,0.52152 0,1.303798 -0.391139,2.477216 -0.26076,1.173418 -0.912659,0.521519 Q 52.99067,30.025 52.99067,29.373101 q 0,-0.651899 0.13038,-1.303798 -1.434178,0.26076 -2.477216,0.521519 -0.912659,0.13038 -1.955697,-0.521519 -0.912659,-0.651899 0,-0.651899 1.043038,0 2.346836,-0.13038 1.303798,-0.260759 2.216457,-0.391139 0,-0.912658 0.13038,-2.477216 -1.955697,0.26076 -2.868356,0.391139 -0.782279,0.13038 -2.216456,0.39114 -1.434178,0.260759 -2.607596,-0.651899 -0.26076,1.043038 -1.043039,3.389874 -0.782278,2.216457 -2.477216,4.693673 -1.564557,2.477216 -3.650634,4.041774 -2.086077,1.434178 -0.521519,-0.39114 1.564557,-1.955697 3.259495,-5.084812 1.694937,-3.129115 2.737975,-6.779749 1.043039,-3.781014 1.173419,-5.736711 0.260759,-1.955697 -0.13038,-2.868356 -0.39114,-1.043038 0.391139,-0.782278 0.912659,0.260759 1.173418,0.521519 0.39114,0.13038 1.303798,0.13038 0.912659,0 4.172154,-0.651899 3.389874,-0.651899 4.693672,-1.043039 1.434178,-0.391139 2.477217,-0.521519 1.043038,-0.13038 1.694937,0.521519 0.782279,0.521519 -0.39114,0.912659 -1.043038,0.391139 -2.998735,0.782279 -1.955697,0.391139 -4.563293,0.782278 -2.607596,0.26076 -5.475951,0.39114 z M 59.9008,35.500952 q 0.912658,0.912658 0.782278,1.303798 0,0.391139 -1.303798,0.391139 -1.303798,0.13038 -3.650634,0.26076 -2.216456,0.130379 -5.215192,0.391139 -0.391139,1.955697 -0.912658,0.782279 -0.52152,-1.043039 -1.043039,-3.129115 -0.521519,-2.086077 -1.303798,-2.998736 -0.651899,-1.043038 0.39114,-0.912658 1.043038,0 1.564557,0.260759 0.521519,0.13038 4.172154,-0.391139 3.781014,-0.651899 4.693672,-1.173418 1.043039,-0.521519 2.086077,0 1.173418,0.391139 2.086077,1.173418 0.912658,0.782279 -0.26076,1.434178 -1.173418,0.651899 -2.086076,2.607596 z m -9.908865,-2.607596 q 0.26076,2.607596 0.391139,3.781014 4.693673,-0.521519 7.692408,-1.043039 0.52152,-2.086076 0.39114,-2.868355 -0.13038,-0.912659 -1.694938,-0.782279 -1.434177,0.13038 -6.779749,0.912659 z M 53.51219,12.684487 q -1.955697,-1.434177 -2.346837,-2.086076 -0.260759,-0.6518994 2.216457,-0.26076 2.477216,0.26076 2.216456,1.955697 -0.13038,1.694937 -2.086076,0.391139 z m 1.564557,10.169624 q 2.346836,-0.260759 3.650634,-0.521519 0.13038,-1.043038 0.13038,-1.564557 0,-0.521519 -0.651899,-0.39114 -0.521519,0 -2.998735,0.521519 z m -0.13038,3.781015 q 1.694938,-0.39114 3.259495,-0.651899 0.26076,-1.434178 0.39114,-2.216457 -1.694938,0.13038 -3.520255,0.391139 z"
     style="font-style:normal;font-variant:normal;font-weight:normal;font-stretch:normal;font-family:KaiTi;-inkscape-font-specification:KaiTi;fill:#ff2a2a;fill-opacity:1;stroke-width:0.83443069"
     id="path22" /></g>

<circle
   style="fill:#ff0000;fill-opacity:1"
   id="path5112"
   cx="28.759493"
   cy="28.095163"
   r="1.8987342" /></svg>