<?xml version="1.0" encoding="UTF-8" standalone="no"?>
<svg
   xmlns:dc="http://purl.org/dc/elements/1.1/"
   xmlns:cc="http://creativecommons.org/ns#"
   xmlns:rdf="http://www.w3.org/1999/02/22-rdf-syntax-ns#"
   xmlns:svg="http://www.w3.org/2000/svg"
   xmlns="http://www.w3.org/2000/svg"
   xmlns:sodipodi="http://sodipodi.sourceforge.net/DTD/sodipodi-0.dtd"
   xmlns:inkscape="http://www.inkscape.org/namespaces/inkscape"
   version="1.1"
   x="0px"
   y="0px"
   viewBox="0 0 61.030727 57.841999"
   enable-background="new 0 0 100 100"
   xml:space="preserve"
   id="svg3686"
   sodipodi:docname="lang_kr.svg"
   inkscape:version="0.92.1 r15371"
   width="61.030727"
   height="57.841999"><metadata
   id="metadata3692"><rdf:RDF><cc:Work
       rdf:about=""><dc:format>image/svg+xml</dc:format><dc:type
         rdf:resource="http://purl.org/dc/dcmitype/StillImage" /><dc:title /></cc:Work></rdf:RDF></metadata><defs
   id="defs3690" /><sodipodi:namedview
   pagecolor="#ffffff"
   bordercolor="#666666"
   borderopacity="1"
   objecttolerance="10"
   gridtolerance="10"
   guidetolerance="10"
   inkscape:pageopacity="0"
   inkscape:pageshadow="2"
   inkscape:window-width="955"
   inkscape:window-height="598"
   id="namedview3688"
   showgrid="false"
   inkscape:zoom="3.95"
   inkscape:cx="27.394529"
   inkscape:cy="21.308666"
   inkscape:window-x="21"
   inkscape:window-y="9"
   inkscape:window-maximized="0"
   inkscape:current-layer="svg3686" /><path
   d="M 49.238864,0 H 11.790989 C 5.2894399,0 0,6.058 0,13.504 v 30.835 c 0,7.445 5.2894399,13.503 11.790989,13.503 h 37.448748 c 6.50155,0 11.790992,-6.058 11.790992,-13.503 V 13.504 C 61.03012,6.058 55.741287,0 49.238864,0 Z m 0,53.963 H 11.790989 c -4.6327358,0 -8.403547,-4.317 -8.403547,-9.624 V 13.504 c 0,-5.308 3.7708112,-9.625 8.403547,-9.625 h 37.448748 c 4.632736,0 8.403547,4.317 8.403547,9.625 v 30.835 c -9.13e-4,5.307 -3.771684,9.624 -8.40442,9.624 z"
   id="path3680"
   inkscape:connector-curvature="0"
   style="fill:#0000aa;fill-opacity:1;stroke-width:0.93449306" /><text
   xml:space="preserve"
   style="font-style:normal;font-weight:normal;font-size:40px;line-height:1.25;font-family:sans-serif;letter-spacing:0px;word-spacing:0px;fill:#000000;fill-opacity:1;stroke:none"
   x="8.728426"
   y="47.74691"
   id="text3696"><tspan
     sodipodi:role="line"
     id="tspan3694"
     x="8.728426"
     y="83.137535" /></text>


<text
   xml:space="preserve"
   style="font-style:normal;font-weight:normal;font-size:33.37722778px;line-height:1.25;font-family:sans-serif;letter-spacing:0px;word-spacing:0px;fill:#000000;fill-opacity:1;stroke:none;stroke-width:0.83443069"
   x="2.2729297"
   y="36.67437"
   id="text3700"
   transform="scale(0.83443068,1.1984219)"><tspan
     sodipodi:role="line"
     id="tspan3698"
     x="2.2729297"
     y="66.205391"
     style="font-style:normal;font-variant:normal;font-weight:normal;font-stretch:normal;font-family:KaiTi;-inkscape-font-specification:KaiTi;fill:#ffad00;fill-opacity:1;stroke-width:0.83443069" /></text>


<g
   aria-label="æœ"
   transform="scale(0.99513726,1.0048865)"
   style="font-style:normal;font-weight:normal;font-size:42.60818481px;line-height:1.25;font-family:sans-serif;letter-spacing:0px;word-spacing:0px;fill:#2a2aff;fill-opacity:1;stroke:none;stroke-width:1.06520462"
   id="text5101"><path
     d="m 27.028546,16.744793 q 2.995888,-0.998629 3.661641,-0.665753 0.832191,0.166439 0.832191,0.665753 0.166438,0.332877 -0.832191,0.832191 -0.832191,0.499315 -3.828079,1.165068 l -0.499315,3.162326 q 1.83082,-0.499314 2.496573,-0.832191 0.832191,-0.332876 3.328765,1.165068 2.496573,1.497944 1.331505,2.496573 -1.165067,0.832191 -2.163696,2.995888 -0.832192,1.997259 -1.497944,3.495203 -0.499315,1.331505 -1.664383,0.332876 l -2.330135,0.499315 v 2.829449 q 1.997259,-0.499314 3.495203,-0.832191 1.497944,-0.332876 1.83082,0.166439 0.332877,0.499314 -0.499314,0.832191 -0.832191,0.332876 -4.826709,1.331505 0.166438,6.657529 -0.665753,8.321912 -0.832191,1.664382 -1.497944,-0.166439 -0.499314,-1.664382 -0.332876,-2.829449 0.166438,-1.165068 0.332876,-4.660271 -7.822596,2.163697 -8.821225,2.995888 -0.99863,0.832191 -2.995888,-0.832191 -1.830821,-1.664382 0.998629,-1.497944 2.82945,0 10.818484,-2.330135 0,-1.83082 -0.166438,-2.995888 l -1.997259,0.665753 q -1.165067,1.83082 -2.330135,-1.83082 -1.331505,-4.993147 -2.330135,-6.158215 -0.998629,-1.165067 0,-1.165067 0.99863,-0.166438 1.997259,0 1.165067,0 5.658899,-1.331506 l 0.332877,-3.328764 q -1.331506,0.332876 -2.163697,0.499314 -0.832191,0 -1.997259,-0.499314 -0.998629,-0.665753 0.499315,-0.99863 1.497944,-0.332876 3.828079,-0.998629 0.332877,-4.327394 -0.665753,-5.492461 -0.832191,-1.165068 0.499315,-0.99863 1.331506,0.166439 2.663011,0.665753 1.497944,0.499315 0.665753,1.331506 -0.665753,0.832191 -1.165067,3.994517 z m 11.317799,7.156844 q 1.165067,0 2.496573,-0.332877 1.497944,-0.499314 2.163697,0.332877 0.832191,0.832191 -0.832191,1.165067 -1.497944,0.332877 -3.994517,0 0,2.496574 -0.332877,5.326023 1.165068,0 2.82945,-0.166438 1.664382,-0.332876 2.330135,0.665753 0.832191,0.832191 -0.832191,1.165068 -1.664382,0.166438 -4.493832,-0.166439 -1.165068,5.991776 -3.495203,8.987664 -2.163697,2.995888 -4.493832,4.493832 -2.330135,1.497944 -0.665753,-0.332876 1.830821,-1.664382 3.661641,-4.993147 1.997259,-3.495202 2.663012,-7.323281 0.665753,-3.994518 0.665753,-8.654788 0,-4.66027 -0.832191,-6.158214 -0.832191,-1.664382 0,-1.664382 0.832191,0 1.83082,0.332876 0.998629,0.332877 2.330135,0.166438 1.497944,-0.332876 2.82945,-0.832191 1.497944,-0.499314 1.997259,-0.832191 0.665752,-0.499315 1.83082,0.166438 1.331506,0.665753 2.330135,1.331506 0.998629,0.665753 -0.166438,1.830821 -0.998629,0.998629 -1.165068,6.324652 -0.166438,5.159585 0.166439,11.317799 0.499314,6.158214 0.166438,7.656158 -0.332877,1.331506 -1.331506,2.82945 -0.998629,1.497944 -1.664382,-0.332876 -0.665753,-1.664383 -1.664382,-2.663012 -0.832192,-0.998629 -1.997259,-1.997259 -0.998629,-0.998629 1.165067,-0.332876 2.163697,0.665753 2.496574,0.332876 0.499314,-0.499314 0.499314,-3.828079 v -8.987664 q 0,-5.658899 -0.166438,-8.654787 0,-2.995888 -0.832191,-2.995888 -0.832191,-0.166438 -5.492461,0.998629 z m -17.975328,3.828079 q 2.163697,-0.499315 3.994517,-1.331506 1.997259,-0.832191 2.82945,0 0.832191,0.832191 -1.664382,1.497944 -2.496574,0.665753 -4.993147,0.998629 0.332877,1.331506 0.665753,2.82945 5.326023,-1.331506 6.990405,-1.331506 0.832191,-2.496573 1.165068,-4.826708 0.499315,-2.496573 -0.665753,-2.496573 -0.998629,-0.166438 -3.495203,0.499314 -2.496573,0.665753 -5.326023,1.331506 0.166438,1.165068 0.499315,2.82945 z"
     style="font-style:normal;font-variant:normal;font-weight:normal;font-stretch:normal;font-size:42.60818481px;font-family:KaiTi;-inkscape-font-specification:'KaiTi, Normal';font-variant-ligatures:normal;font-variant-caps:normal;font-variant-numeric:normal;font-feature-settings:normal;text-align:start;writing-mode:lr-tb;text-anchor:start;fill:#0000aa;stroke-width:1.06520462"
     id="path13" /></g>
</svg>