<?xml version="1.0" encoding="UTF-8" standalone="no"?>
<svg
   xmlns:dc="http://purl.org/dc/elements/1.1/"
   xmlns:cc="http://creativecommons.org/ns#"
   xmlns:rdf="http://www.w3.org/1999/02/22-rdf-syntax-ns#"
   xmlns:svg="http://www.w3.org/2000/svg"
   xmlns="http://www.w3.org/2000/svg"
   xmlns:sodipodi="http://sodipodi.sourceforge.net/DTD/sodipodi-0.dtd"
   xmlns:inkscape="http://www.inkscape.org/namespaces/inkscape"
   version="1.1"
   x="0px"
   y="0px"
   viewBox="0 0 61.030727 57.841999"
   enable-background="new 0 0 100 100"
   xml:space="preserve"
   id="svg3686"
   sodipodi:docname="lang_pu.svg"
   inkscape:version="0.92.1 r15371"
   width="61.030727"
   height="57.841999"><metadata
   id="metadata3692"><rdf:RDF><cc:Work
       rdf:about=""><dc:format>image/svg+xml</dc:format><dc:type
         rdf:resource="http://purl.org/dc/dcmitype/StillImage" /><dc:title /></cc:Work></rdf:RDF></metadata><defs
   id="defs3690" /><sodipodi:namedview
   pagecolor="#ffffff"
   bordercolor="#666666"
   borderopacity="1"
   objecttolerance="10"
   gridtolerance="10"
   guidetolerance="10"
   inkscape:pageopacity="0"
   inkscape:pageshadow="2"
   inkscape:window-width="955"
   inkscape:window-height="598"
   id="namedview3688"
   showgrid="false"
   inkscape:zoom="3.95"
   inkscape:cx="15.038992"
   inkscape:cy="21.308666"
   inkscape:window-x="21"
   inkscape:window-y="9"
   inkscape:window-maximized="0"
   inkscape:current-layer="svg3686" /><path
   d="M 49.238864,0 H 11.790989 C 5.2894399,0 0,6.058 0,13.504 v 30.835 c 0,7.445 5.2894399,13.503 11.790989,13.503 h 37.448748 c 6.50155,0 11.790992,-6.058 11.790992,-13.503 V 13.504 C 61.03012,6.058 55.741287,0 49.238864,0 Z m 0,53.963 H 11.790989 c -4.6327358,0 -8.403547,-4.317 -8.403547,-9.624 V 13.504 c 0,-5.308 3.7708112,-9.625 8.403547,-9.625 h 37.448748 c 4.632736,0 8.403547,4.317 8.403547,9.625 v 30.835 c -9.13e-4,5.307 -3.771684,9.624 -8.40442,9.624 z"
   id="path3680"
   inkscape:connector-curvature="0"
   style="fill:#ff00ff;fill-opacity:1;stroke-width:0.93449306" /><text
   xml:space="preserve"
   style="font-style:normal;font-weight:normal;font-size:40px;line-height:1.25;font-family:sans-serif;letter-spacing:0px;word-spacing:0px;fill:#000000;fill-opacity:1;stroke:none"
   x="8.728426"
   y="47.74691"
   id="text3696"><tspan
     sodipodi:role="line"
     id="tspan3694"
     x="8.728426"
     y="83.137535" /></text>


<text
   xml:space="preserve"
   style="font-style:normal;font-weight:normal;font-size:33.37722778px;line-height:1.25;font-family:sans-serif;letter-spacing:0px;word-spacing:0px;fill:#000000;fill-opacity:1;stroke:none;stroke-width:0.83443069"
   x="2.2729297"
   y="36.67437"
   id="text3700"
   transform="scale(0.83443068,1.1984219)"><tspan
     sodipodi:role="line"
     id="tspan3698"
     x="2.2729297"
     y="66.205391"
     style="font-style:normal;font-variant:normal;font-weight:normal;font-stretch:normal;font-family:KaiTi;-inkscape-font-specification:KaiTi;fill:#ffad00;fill-opacity:1;stroke-width:0.83443069" /></text>


<g
   aria-label="普"
   transform="scale(0.97985161,1.0205627)"
   style="font-style:normal;font-weight:normal;font-size:43.8854599px;line-height:1.25;font-family:sans-serif;letter-spacing:0px;word-spacing:0px;fill:#000000;fill-opacity:1;stroke:none;stroke-width:1.0971365"
   id="text5101"><path
     d="m 35.714274,44.68873 q -4.799972,0.171428 -6.857103,0.342855 -2.057131,0.342855 -3.085696,0 -0.342855,4.114262 -1.542848,2.399986 -1.028566,-1.542848 -0.857138,-3.257124 0.342855,-1.714276 0.342855,-3.771407 0,-2.228558 -0.171428,-3.942834 -0.171427,-1.714276 -1.028565,-2.571413 -0.68571,-0.857138 1.028565,-0.514283 1.885704,0.171427 2.914269,0.171427 1.199993,0 4.628545,-0.342855 3.599979,-0.342855 4.799972,-0.68571 1.199993,-0.514283 2.742841,0.171428 1.542848,0.514282 1.885704,1.028565 0.514282,0.342855 -0.171428,1.371421 -0.68571,0.857137 -0.68571,5.485682 0.171427,4.628545 -0.857138,6.514248 -1.028566,1.885703 -1.714276,0.857138 -0.514283,-0.857138 -1.371421,-3.257124 z M 34.514281,19.146021 q 1.885704,0.68571 1.542849,1.714276 -0.342856,0.857138 -0.514283,2.399986 -0.171428,1.542848 -0.514283,4.799972 6.514248,-0.68571 9.085662,-1.028566 2.571413,-0.342855 3.942834,0.514283 1.542848,0.68571 1.714276,1.542848 0.342855,0.685711 -0.857138,0.685711 -1.199993,-0.171428 -4.628545,-0.342855 -3.257124,-0.342856 -8.571379,0.171427 -5.142827,0.342855 -8.742806,0.68571 -3.428552,0.342856 -6.34282,0.857138 -2.742842,0.514283 -4.28569,0.857138 -1.542848,0.171428 -2.914269,-1.028565 -1.199993,-1.371421 0,-1.199993 1.199993,0.171427 5.142828,-0.171428 4.114261,-0.342855 8.571378,-0.857138 0,-4.114262 -0.171427,-5.828537 -0.171428,-1.885704 -1.028566,-2.914269 -2.399986,0.342855 -3.942834,-0.342855 -1.542848,-0.685711 0,-0.685711 1.714276,-0.171427 4.9714,-0.68571 3.257124,-0.68571 5.65711,-1.028565 2.399986,-0.514283 3.599979,-0.857138 1.371421,-0.342856 2.571414,-0.514283 1.199993,-0.171428 2.228558,0.68571 1.028566,0.857138 -0.857138,1.542848 -1.885703,0.514283 -5.65711,1.028566 z M 25.771475,44.00302 q 2.914269,-0.514283 5.999965,-0.857138 3.085696,-0.514283 3.771407,0.342855 0.857138,0.857138 1.028565,-0.68571 0.342855,-1.542849 0.342855,-4.457117 0.171428,-2.914269 -0.514282,-3.771407 -0.514283,-0.857138 -3.085697,-0.514283 -2.399986,0.171428 -7.542813,0.68571 v 3.59998 q 3.085696,-0.171428 5.828537,-0.685711 2.914269,-0.514282 3.257124,0.342855 0.342856,0.685711 -1.542848,1.199993 -1.885703,0.514283 -3.771406,0.685711 -1.885704,0.171427 -3.771407,-0.857138 z m 7.371386,-21.085592 q 0,-2.914269 -0.514283,-3.771407 -2.742841,0.514283 -5.142827,0.68571 2.228558,1.028566 1.885703,2.057131 -0.342855,1.028566 -0.514283,6.685676 2.228559,-0.171428 4.28569,-0.342856 z M 38.971398,9.5460765 q 2.399986,1.3714205 1.371421,2.0571305 -1.028566,0.514283 -2.914269,2.057131 -1.885703,1.371421 -3.942834,2.399986 -1.885704,1.028566 -0.342855,-0.342855 1.542848,-1.542848 2.742841,-3.257124 1.199993,-1.714275 0.857138,-2.9142685 -0.171428,-1.3714206 2.228558,0 z M 42.39995,20.003159 q 2.399986,1.199993 1.028565,1.885703 -1.199993,0.68571 -2.742841,1.885703 -1.542848,1.028566 -3.428551,1.885704 -1.885704,0.68571 -0.857138,-0.171428 1.199993,-1.028565 2.742841,-2.914269 1.542848,-1.885703 1.199993,-2.742841 -0.171428,-1.028565 2.057131,0.171428 z M 26.11433,11.43178 q 2.571414,0.68571 3.257124,1.885703 0.68571,1.199993 0,2.228559 -0.514283,0.857138 -2.057131,-0.342855 -1.542848,-1.199993 -2.742841,-2.742842 -1.028566,-1.714275 1.542848,-1.028565 z m -6.34282,12.342785 q -1.714276,-2.228558 1.028565,-1.37142 2.742841,0.857138 3.085696,2.228558 0.342856,1.199993 -0.171427,1.885704 -0.342855,0.68571 -1.371421,0 -0.857138,-0.685711 -2.571413,-2.742842 z"
     style="font-style:normal;font-variant:normal;font-weight:normal;font-stretch:normal;font-size:43.8854599px;font-family:KaiTi;-inkscape-font-specification:'KaiTi, Normal';font-variant-ligatures:normal;font-variant-caps:normal;font-variant-numeric:normal;font-feature-settings:normal;text-align:start;writing-mode:lr-tb;text-anchor:start;fill:#ff00ff;stroke-width:1.0971365"
     id="path13" /></g>
</svg>