<?xml version="1.0" encoding="UTF-8" standalone="no"?>
<svg
   xmlns:dc="http://purl.org/dc/elements/1.1/"
   xmlns:cc="http://creativecommons.org/ns#"
   xmlns:rdf="http://www.w3.org/1999/02/22-rdf-syntax-ns#"
   xmlns:svg="http://www.w3.org/2000/svg"
   xmlns="http://www.w3.org/2000/svg"
   xmlns:sodipodi="http://sodipodi.sourceforge.net/DTD/sodipodi-0.dtd"
   xmlns:inkscape="http://www.inkscape.org/namespaces/inkscape"
   version="1.1"
   x="0px"
   y="0px"
   viewBox="0 0 61.030727 57.841999"
   enable-background="new 0 0 100 100"
   xml:space="preserve"
   id="svg3686"
   sodipodi:docname="lang_jp_kan.svg"
   inkscape:version="0.92.1 r15371"
   width="61.030727"
   height="57.841999"><metadata
   id="metadata3692"><rdf:RDF><cc:Work
       rdf:about=""><dc:format>image/svg+xml</dc:format><dc:type
         rdf:resource="http://purl.org/dc/dcmitype/StillImage" /><dc:title /></cc:Work></rdf:RDF></metadata><defs
   id="defs3690" /><sodipodi:namedview
   pagecolor="#ffffff"
   bordercolor="#666666"
   borderopacity="1"
   objecttolerance="10"
   gridtolerance="10"
   guidetolerance="10"
   inkscape:pageopacity="0"
   inkscape:pageshadow="2"
   inkscape:window-width="955"
   inkscape:window-height="598"
   id="namedview3688"
   showgrid="false"
   inkscape:zoom="3.95"
   inkscape:cx="35.446669"
   inkscape:cy="21.308666"
   inkscape:window-x="21"
   inkscape:window-y="9"
   inkscape:window-maximized="0"
   inkscape:current-layer="svg3686" /><path
   d="M 49.238864,0 H 11.790989 C 5.2894399,0 0,6.058 0,13.504 v 30.835 c 0,7.445 5.2894399,13.503 11.790989,13.503 h 37.448748 c 6.50155,0 11.790992,-6.058 11.790992,-13.503 V 13.504 C 61.03012,6.058 55.741287,0 49.238864,0 Z m 0,53.963 H 11.790989 c -4.6327358,0 -8.403547,-4.317 -8.403547,-9.624 V 13.504 c 0,-5.308 3.7708112,-9.625 8.403547,-9.625 h 37.448748 c 4.632736,0 8.403547,4.317 8.403547,9.625 v 30.835 c -9.13e-4,5.307 -3.771684,9.624 -8.40442,9.624 z"
   id="path3680"
   inkscape:connector-curvature="0"
   style="fill:#ff0000;fill-opacity:1;stroke-width:0.93449306" /><text
   xml:space="preserve"
   style="font-style:normal;font-weight:normal;font-size:40px;line-height:1.25;font-family:sans-serif;letter-spacing:0px;word-spacing:0px;fill:#000000;fill-opacity:1;stroke:none"
   x="8.728426"
   y="47.74691"
   id="text3696"><tspan
     sodipodi:role="line"
     id="tspan3694"
     x="8.728426"
     y="83.137535" /></text>

<g
   aria-label="日漢"
   transform="scale(0.83443068,1.1984219)"
   style="font-style:normal;font-weight:normal;font-size:33.37722778px;line-height:1.25;font-family:sans-serif;letter-spacing:0px;word-spacing:0px;fill:#ff2a2a;fill-opacity:1;stroke:none;stroke-width:0.83443069"
   id="text3700"><path
     d="m 13.485592,32.893356 q -0.651899,2.868355 -1.564557,1.303798 -0.782279,-1.694938 -0.26076,-3.781014 0.651899,-2.216457 0.521519,-6.38861 0,-4.302534 -0.260759,-5.736711 -0.26076,-1.434178 -0.782279,-2.477217 -0.521519,-1.043038 0.391139,-0.651899 1.043039,0.26076 1.825317,0.39114 0.782279,0 2.477216,-0.26076 1.825318,-0.260759 3.650635,-0.651899 1.825317,-0.521519 2.607596,-1.043038 0.782278,-0.651899 2.086076,-0.13038 1.303798,0.521519 2.216457,1.303798 0.912659,0.651899 0,2.086077 -0.782279,1.303798 -0.651899,6.910129 0.13038,5.475951 0.13038,7.953168 0.13038,2.477216 -0.912659,4.432913 -0.912658,1.825317 -1.434178,-0.26076 -0.521519,-2.086077 -0.912658,-2.737976 -0.26076,-0.782278 -1.434178,-0.782278 -1.043038,-0.13038 -3.781014,0.260759 -2.607596,0.39114 -3.911394,0.26076 z m 0.39114,-8.474687 q -0.26076,3.781014 -0.39114,7.562028 3.259495,-0.13038 5.345572,-0.782279 2.216456,-0.782278 2.998735,0.26076 0.782279,0.912659 1.303798,0.782279 0.651899,-0.26076 0.651899,-5.475952 0,-5.215192 -0.13038,-8.213927 -0.13038,-2.998735 -1.173418,-3.259495 -0.912659,-0.260759 -8.996206,1.434178 0.39114,3.389875 0.39114,6.910129 1.434177,0 3.520254,-0.782279 2.086077,-0.912658 3.520255,0 1.434177,0.782279 -2.216457,1.434178 -3.520255,0.651899 -4.824052,0.13038 z"
     style="font-style:normal;font-variant:normal;font-weight:normal;font-stretch:normal;font-family:KaiTi;-inkscape-font-specification:KaiTi;fill:#ff2a2a;fill-opacity:1;stroke-width:0.83443069"
     id="path12" /><path
     d="m 58.336242,13.988285 q 1.694937,-0.260759 2.477216,-0.391139 0.782279,-0.13038 1.434178,0.521519 0.651899,0.521519 -0.39114,0.782279 -1.043038,0.13038 -3.911393,0.391139 -0.26076,1.173418 -0.651899,2.216457 1.303798,1.043038 0.130379,1.173418 -1.043038,0.13038 -2.868355,0.391139 0.651899,0.782279 0.521519,1.043039 0,0.260759 -0.13038,0.521519 2.737976,-0.521519 3.389875,-0.912659 0.651899,-0.521519 1.434178,-0.130379 0.912658,0.391139 1.434177,0.782278 0.52152,0.39114 -0.391139,1.043039 -0.912658,0.521519 -1.434178,1.694937 1.043039,1.043038 0,1.173418 -0.912658,0 -2.346836,0.13038 -1.303798,0.13038 -2.216457,0.26076 -0.130379,1.043038 -0.130379,1.825317 1.825317,-0.39114 2.868355,-0.521519 1.043039,-0.13038 1.434178,0.391139 0.521519,0.521519 -0.391139,0.782279 -0.912659,0.260759 -4.041774,0.651899 0,0.651899 -0.26076,1.564557 l 4.041774,-0.391139 q 1.434178,-0.13038 2.607596,-0.26076 1.173418,-0.13038 1.955697,0.13038 0.912658,0.13038 1.434178,0.912659 0.521519,0.651899 -0.26076,0.782278 -0.782279,0 -2.998735,-0.130379 -2.086077,-0.13038 -6.64937,0.130379 2.868356,3.650635 4.693673,4.824053 1.955697,1.173418 2.998735,1.694937 1.043038,0.521519 1.955697,0.782279 1.043038,0.391139 1.303798,0.651899 0.391139,0.26076 -1.173418,0.26076 -1.564558,0.130379 -3.129115,0 -1.434178,-0.13038 -1.955697,-0.39114 -0.39114,-0.260759 -1.434178,-1.564557 -0.912659,-1.303798 -1.825317,-2.607596 -0.782279,-1.303798 -2.086077,-2.998736 -0.782279,2.346837 -2.216456,3.781014 -1.303798,1.434178 -3.389875,2.216457 -1.955697,0.782279 -3.129115,0.651899 -1.043039,0 0.13038,-0.521519 1.303798,-0.39114 2.477216,-1.043039 1.173418,-0.651899 1.955697,-1.434177 0.912658,-0.912659 1.564557,-1.825317 0.651899,-1.043039 1.043039,-2.216457 -2.998736,0.391139 -3.781015,0.651899 -0.651899,0.13038 -1.564557,0.26076 -0.912659,0.130379 -1.564558,-0.13038 -0.521519,-0.39114 -0.912658,-0.782279 -0.39114,-0.391139 0.651899,-0.391139 1.173418,0 3.259495,-0.13038 2.216456,-0.26076 4.302533,-0.782279 0.13038,-0.521519 0.26076,-1.564558 -2.737976,0.26076 -3.650635,-0.130379 -0.782279,-0.39114 0.39114,-0.52152 1.173418,-0.130379 3.389874,-0.521519 0.13038,-1.173418 0.13038,-1.825317 -2.998735,0.39114 -3.911394,0.521519 -0.391139,0.782279 -0.651899,0.39114 -0.260759,-0.521519 -0.651899,-1.955697 -0.260759,-1.564558 -0.782278,-2.086077 -0.39114,-0.521519 0.130379,-0.521519 0.521519,-0.13038 1.173418,0.13038 0.651899,0.130379 1.955697,0 1.434178,-0.26076 2.737976,-0.52152 0,-0.651898 -0.13038,-1.564557 h -0.391139 q -0.521519,1.043038 -0.912659,0.26076 -0.260759,-0.782279 -0.521519,-2.998736 -1.043038,0.13038 -1.564557,0.26076 -0.52152,0.13038 -1.303798,-0.521519 -0.782279,-0.651899 0,-0.651899 0.912658,-0.13038 2.737975,-0.39114 -0.521519,-2.216456 -1.043038,-2.737975 -0.391139,-0.651899 0.391139,-0.651899 0.912659,0 1.694938,0.260759 0.782279,0.26076 0.521519,1.043039 -0.26076,0.651899 -0.26076,1.825317 2.477216,-0.39114 4.172154,-0.782279 0.391139,-2.346836 -0.13038,-3.389875 -0.391139,-1.0430382 1.303798,-0.260759 1.694937,0.651899 1.434178,1.043038 -0.26076,0.391139 -0.782279,2.346836 z M 44.385604,24.809808 q 0.13038,0.39114 -0.651899,2.346837 -0.651899,1.825317 -1.303798,3.520254 -0.521519,1.564558 -0.912659,2.737976 -0.260759,1.173418 -0.521519,2.346836 -0.13038,1.173418 -0.912658,0.26076 -0.651899,-0.912659 -1.043039,-1.955697 -0.391139,-1.173418 0.13038,-1.303798 0.521519,-0.26076 1.564557,-1.955697 1.173419,-1.825317 2.346837,-4.172153 1.303798,-2.346837 1.303798,-1.825318 z m 4.693672,-2.477216 q 0.13038,1.825317 0.13038,2.216457 1.825317,-0.26076 3.911394,-0.651899 0,-1.173418 0.13038,-2.216457 -1.173418,0.26076 -4.172154,0.651899 z m 3.259495,-5.99747 q 0,1.043038 0.13038,2.086076 0.39114,0 3.650634,-0.782278 0.13038,-0.651899 0.26076,-2.086077 -1.564558,0.260759 -4.041774,0.782279 z m -13.298739,3.911394 q 1.043039,0.130379 1.825317,0.651898 0.912659,0.39114 1.043039,0.912659 0.130379,0.391139 0,1.173418 0,0.782279 -0.39114,1.173418 -0.260759,0.26076 -0.912658,-0.260759 -0.651899,-0.651899 -1.564558,-2.216457 -0.912658,-1.694937 0,-1.434177 z m 15.906335,1.303797 q -0.13038,1.173419 -0.13038,2.216457 1.434178,-0.26076 3.389875,-0.521519 0.39114,-1.825317 0.26076,-1.955697 -0.13038,-0.26076 -0.782279,-0.13038 -0.651899,0 -2.737976,0.391139 z m -12.64684,-8.213927 q 0.912659,0.13038 1.825317,0.651899 0.912659,0.39114 1.043039,0.912659 0.260759,0.391139 0,1.173418 -0.13038,0.782279 -0.52152,0.782279 -0.391139,0 -1.043038,-0.521519 -0.521519,-0.651899 -1.434178,-1.825318 -0.782279,-1.303797 0.13038,-1.173418 z"
     style="font-style:normal;font-variant:normal;font-weight:normal;font-stretch:normal;font-family:KaiTi;-inkscape-font-specification:KaiTi;fill:#ff2a2a;fill-opacity:1;stroke-width:0.83443069"
     id="path14" /></g>
<circle
   style="fill:#ff0000;fill-opacity:1"
   id="path5112"
   cx="26.759493"
   cy="28.095163"
   r="1.8987342" /></svg>