<?xml version="1.0" encoding="UTF-8" standalone="no"?>
<svg
   xmlns:dc="http://purl.org/dc/elements/1.1/"
   xmlns:cc="http://creativecommons.org/ns#"
   xmlns:rdf="http://www.w3.org/1999/02/22-rdf-syntax-ns#"
   xmlns:svg="http://www.w3.org/2000/svg"
   xmlns="http://www.w3.org/2000/svg"
   xmlns:sodipodi="http://sodipodi.sourceforge.net/DTD/sodipodi-0.dtd"
   xmlns:inkscape="http://www.inkscape.org/namespaces/inkscape"
   version="1.1"
   x="0px"
   y="0px"
   viewBox="0 0 61.030727 57.841999"
   enable-background="new 0 0 100 100"
   xml:space="preserve"
   id="svg3686"
   sodipodi:docname="lang_mn.svg"
   inkscape:version="0.92.1 r15371"
   width="61.030727"
   height="57.841999"><metadata
   id="metadata3692"><rdf:RDF><cc:Work
       rdf:about=""><dc:format>image/svg+xml</dc:format><dc:type
         rdf:resource="http://purl.org/dc/dcmitype/StillImage" /><dc:title /></cc:Work></rdf:RDF></metadata><defs
   id="defs3690" /><sodipodi:namedview
   pagecolor="#ffffff"
   bordercolor="#666666"
   borderopacity="1"
   objecttolerance="10"
   gridtolerance="10"
   guidetolerance="10"
   inkscape:pageopacity="0"
   inkscape:pageshadow="2"
   inkscape:window-width="955"
   inkscape:window-height="598"
   id="namedview3688"
   showgrid="false"
   inkscape:zoom="3.95"
   inkscape:cx="34.367103"
   inkscape:cy="21.308666"
   inkscape:window-x="22"
   inkscape:window-y="37"
   inkscape:window-maximized="0"
   inkscape:current-layer="svg3686" /><path
   d="M 49.238864,0 H 11.790989 C 5.2894399,0 0,6.058 0,13.504 v 30.835 c 0,7.445 5.2894399,13.503 11.790989,13.503 h 37.448748 c 6.50155,0 11.790992,-6.058 11.790992,-13.503 V 13.504 C 61.03012,6.058 55.741287,0 49.238864,0 Z m 0,53.963 H 11.790989 c -4.6327358,0 -8.403547,-4.317 -8.403547,-9.624 V 13.504 c 0,-5.308 3.7708112,-9.625 8.403547,-9.625 h 37.448748 c 4.632736,0 8.403547,4.317 8.403547,9.625 v 30.835 c -9.13e-4,5.307 -3.771684,9.624 -8.40442,9.624 z"
   id="path3680"
   inkscape:connector-curvature="0"
   style="fill:#d4aa00;fill-opacity:1;stroke-width:0.93449306" /><text
   xml:space="preserve"
   style="font-style:normal;font-weight:normal;font-size:40px;line-height:1.25;font-family:sans-serif;letter-spacing:0px;word-spacing:0px;fill:#000000;fill-opacity:1;stroke:none"
   x="8.728426"
   y="47.74691"
   id="text3696"><tspan
     sodipodi:role="line"
     id="tspan3694"
     x="8.728426"
     y="83.137535" /></text>




<g
   aria-label="閩南"
   transform="scale(0.83443068,1.1984219)"
   style="font-style:normal;font-weight:normal;font-size:33.37722778px;line-height:1.25;font-family:sans-serif;letter-spacing:0px;word-spacing:0px;fill:#d4aa00;fill-opacity:1;stroke:none;stroke-width:0.83443069"
   id="text3700"><path
     d="m 31.134407,19.203477 q -1.825317,0 -5.084812,0.39114 -0.260759,0.912658 -0.651899,0.651899 -0.391139,-0.39114 -0.521519,-3.129116 -0.13038,-2.737975 -0.391139,-3.520254 -0.13038,-0.782279 -0.521519,-1.303798 -0.26076,-0.651899 0.260759,-0.651899 0.651899,0 1.173418,0.13038 0.651899,0 1.955697,-0.26076 1.303798,-0.260759 2.086077,-0.521519 0.782279,-0.391139 1.303798,-0.26076 0.521519,0 1.303798,0.651899 0.912659,0.651899 1.043038,1.043039 0.26076,0.391139 -0.260759,0.912658 -0.39114,0.52152 -0.39114,4.172154 0,3.650634 0.26076,8.605066 0.26076,4.954433 0.391139,6.77975 0.13038,1.825317 -0.130379,3.259495 -0.26076,1.434177 -0.912659,2.216456 -0.521519,0.782279 -0.782279,0.651899 -0.260759,-0.13038 -1.043038,-1.434178 -0.651899,-1.173418 -1.955697,-2.477216 -1.173418,-1.434177 0.13038,-0.912658 1.303798,0.521519 1.564557,0.651899 0.26076,0 0.782279,0.130379 0.521519,0 0.521519,-1.825317 v -4.041773 q 0,-2.086077 -0.13038,-9.908865 z m -12.907599,0.912659 q 1.043038,1.043038 0.260759,1.173418 -4.563293,1.303798 -5.084812,1.303798 -0.13038,2.737976 -0.260759,5.345571 0,2.607596 -0.13038,4.172154 -0.13038,1.564558 -0.39114,2.998735 -0.130379,1.434178 -0.521519,1.434178 -0.26076,0 -0.521519,-0.521519 -0.26076,-0.651899 -0.39114,-1.303798 -0.130379,-0.651899 0.13038,-2.086077 0.26076,-1.434178 0.39114,-2.998735 0.260759,-1.564558 0.391139,-4.041774 0.13038,-2.477216 0.13038,-4.824052 0,-2.477216 -0.13038,-4.041774 -0.13038,-1.564558 -0.521519,-2.216457 -0.26076,-0.782278 0.13038,-0.782278 0.521519,0 1.043038,0.13038 0.521519,0.130379 1.825317,-0.13038 1.434178,-0.26076 1.825317,-0.521519 0.52152,-0.39114 1.043039,-0.26076 0.651899,0.13038 1.434178,0.782279 0.912658,0.521519 0.260759,1.303798 -0.521519,0.651899 -0.912658,5.084812 z m 4.172153,3.520254 q 2.216457,-0.782279 2.607596,-1.043038 0.521519,-0.26076 1.303798,0.260759 0.912658,0.52152 1.303798,0.912659 0.521519,0.391139 -0.13038,0.782279 -0.521519,0.260759 -1.303798,1.434178 0.912659,1.043038 0,1.173418 -0.782279,0 -3.911394,0.521519 l -0.13038,2.607596 q 2.346837,-0.651899 2.607596,-0.782279 -1.173418,-1.434178 -0.130379,-1.043038 1.173418,0.391139 1.825317,0.782278 0.651899,0.39114 0.912658,1.043039 0.39114,0.521519 0.39114,1.173418 0,0.521519 -0.52152,0.651899 -0.391139,0 -2.086076,-1.825317 -5.345572,1.694937 -6.25823,2.086077 -0.782279,0.391139 -1.173419,0.782278 -0.391139,0.26076 -1.434177,-0.521519 -1.043039,-0.912658 -0.52152,-1.043038 0.52152,-0.13038 1.825318,-0.26076 1.303798,-0.13038 3.520254,-0.782279 v -2.607596 l -1.955697,0.39114 q -0.260759,1.043038 -0.651899,0.391139 -0.260759,-0.651899 -0.651899,-1.694937 -0.391139,-1.173418 -1.043038,-1.825317 -0.521519,-0.782279 0.13038,-0.782279 h 1.173418 q 0.651899,0 2.998735,-0.521519 0,-2.216457 -0.651899,-2.998736 -0.521519,-0.782278 0.521519,-0.521519 1.173418,0.26076 1.564558,0.521519 0.391139,0.13038 0.13038,0.782279 -0.26076,0.651899 -0.26076,1.955697 z m 3.650634,-8.605066 1.955697,-0.26076 q 0.39114,-0.13038 0.782279,0.26076 0.521519,0.260759 -0.26076,0.521519 -0.651899,0.260759 -2.477216,0.521519 v 2.477216 q 2.346837,-0.260759 4.954433,-0.260759 0,-2.998736 -0.26076,-4.172154 -0.13038,-1.173418 -0.391139,-1.564557 -0.26076,-0.52152 -1.303798,-0.39114 -1.043039,0 -2.998736,0.521519 z m -12.77722,-0.26076 q 0.13038,1.434178 0.13038,2.868356 1.564558,-0.39114 2.086077,-0.26076 0.521519,0.13038 0.391139,0.521519 0,0.39114 -2.477216,0.782279 v 2.998735 q 1.825317,-0.521519 3.389875,-1.043038 0.391139,-2.216457 0.391139,-3.520255 v -2.086076 q 0,-0.651899 -0.782279,-0.651899 -0.782278,0 -1.434177,0.130379 -0.52152,0.13038 -1.694938,0.26076 z m 9.126586,9.648105 q -0.13038,1.173418 -0.13038,2.477216 1.173418,-0.260759 2.737976,-0.782279 0.26076,-1.564557 0.13038,-1.825317 0,-0.391139 -0.521519,-0.260759 -0.39114,0 -2.216457,0.391139 z m -3.911394,0.782279 q 0.26076,1.043038 0.521519,2.346836 1.303798,-0.26076 2.086077,-0.391139 v -2.477216 q -1.434178,0.260759 -2.607596,0.521519 z"
     style="font-style:normal;font-variant:normal;font-weight:normal;font-stretch:normal;font-family:KaiTi;-inkscape-font-specification:KaiTi;fill:#d4aa00;fill-opacity:1;stroke-width:0.83443069"
     id="path23"
     inkscape:connector-curvature="0" /><path
     d="m 51.37364,15.943982 q 2.086077,-0.391139 3.389875,-0.782279 1.434178,-0.391139 2.216456,0.39114 0.782279,0.651899 -1.043038,1.173418 -1.694937,0.521519 -4.954432,1.043038 -0.521519,1.694938 -0.912659,3.389875 3.911394,-0.651899 5.606331,-0.912658 1.825318,-0.39114 2.868356,-0.782279 1.043038,-0.39114 1.955697,0.13038 0.912659,0.391139 2.086077,1.303797 1.303798,0.782279 0.391139,1.955697 -0.912659,1.043039 -0.912659,5.997471 0,4.824053 -0.260759,6.64937 -0.26076,1.825317 -1.434178,3.389874 -1.043038,1.564558 -1.694937,0 -0.651899,-1.564557 -2.346837,-2.998735 -1.564557,-1.564558 0,-0.912659 1.694938,0.52152 2.346837,0.52152 0.651899,-0.13038 0.912658,-1.173419 0.26076,-1.173418 0.39114,-3.650634 0.260759,-2.607596 0.260759,-4.563293 0.13038,-1.955697 -0.130379,-3.389874 -0.26076,-1.434178 -1.303798,-1.694938 -0.912659,-0.260759 -2.346837,0 -1.303798,0.26076 -3.520254,0.651899 1.303798,0.782279 0.651899,1.434178 -0.521519,0.651899 -1.955697,2.998735 1.043038,-0.260759 1.955697,-0.521519 1.043038,-0.391139 1.694937,0.26076 0.651899,0.651899 -0.521519,1.043038 -1.173418,0.391139 -4.302533,1.043038 0.521519,0.782279 0.391139,1.303798 -0.13038,0.52152 -0.13038,1.173419 2.346837,-0.651899 3.520255,-1.043039 1.173418,-0.391139 2.216456,0.39114 1.043039,0.782278 -0.782279,1.043038 -1.694937,0.26076 -4.954432,0.912659 0,3.129115 -0.260759,4.824052 -0.13038,1.564558 -0.52152,1.825317 -0.391139,0.39114 -0.782278,-1.173418 -0.26076,-1.564558 -0.26076,-5.084812 -2.216456,0.521519 -3.259495,0.782279 -1.043038,0.260759 -2.086077,-0.26076 -0.912658,-0.651899 0.13038,-0.782279 1.173418,-0.130379 5.215192,-1.043038 0,-1.434178 -0.26076,-2.477216 -1.303797,0.391139 -2.086076,0.521519 -0.651899,0 -1.564558,-0.391139 -0.912658,-0.52152 0.39114,-0.651899 1.303798,-0.26076 5.084812,-1.303798 1.173418,-3.389875 0.521519,-4.563293 -4.041774,0.651899 -9.778485,1.825317 0.13038,4.041774 0.26076,8.083547 0.13038,3.911394 -0.26076,5.215192 -0.391139,1.303798 -1.173418,-0.260759 -0.651899,-1.434178 -0.391139,-2.998736 0.391139,-1.564557 0.260759,-5.215192 -0.13038,-3.650634 -1.043038,-4.824052 -0.782279,-1.303798 0.13038,-1.303798 0.912658,0 1.694937,0.13038 0.782279,0.13038 7.822788,-1.173418 0.521519,-2.086077 0.782278,-3.389875 -1.303797,0.13038 -2.216456,0.13038 -0.912659,-0.13038 -2.086077,-0.521519 -1.173418,-0.52152 0.13038,-0.651899 1.303798,-0.13038 4.432913,-0.651899 0.912659,-4.432913 0.26076,-5.475952 -0.52152,-1.0430382 0.521519,-0.782279 1.173418,0.26076 2.086077,0.912659 1.043038,0.521519 0.391139,1.303798 -0.651899,0.651899 -1.434178,3.650634 z m -5.867091,7.953168 q -0.260759,-1.173418 1.043039,-0.39114 1.434178,0.651899 1.434178,1.694938 0,0.912658 -0.52152,1.173418 -0.391139,0.26076 -1.043038,-0.521519 -0.521519,-0.912659 -0.912659,-1.955697 z"
     style="font-style:normal;font-variant:normal;font-weight:normal;font-stretch:normal;font-family:KaiTi;-inkscape-font-specification:KaiTi;fill:#d4aa00;fill-opacity:1;stroke-width:0.83443069"
     id="path25"
     inkscape:connector-curvature="0" /></g>

</svg>