<?xml version="1.0" encoding="UTF-8" standalone="no"?>
<svg
   xmlns:dc="http://purl.org/dc/elements/1.1/"
   xmlns:cc="http://creativecommons.org/ns#"
   xmlns:rdf="http://www.w3.org/1999/02/22-rdf-syntax-ns#"
   xmlns:svg="http://www.w3.org/2000/svg"
   xmlns="http://www.w3.org/2000/svg"
   xmlns:sodipodi="http://sodipodi.sourceforge.net/DTD/sodipodi-0.dtd"
   xmlns:inkscape="http://www.inkscape.org/namespaces/inkscape"
   version="1.1"
   x="0px"
   y="0px"
   viewBox="0 0 61.030727 57.841999"
   enable-background="new 0 0 100 100"
   xml:space="preserve"
   id="svg3686"
   sodipodi:docname="lang_mc.svg"
   inkscape:version="0.92.1 r15371"
   width="61.030727"
   height="57.841999"><metadata
   id="metadata3692"><rdf:RDF><cc:Work
       rdf:about=""><dc:format>image/svg+xml</dc:format><dc:type
         rdf:resource="http://purl.org/dc/dcmitype/StillImage" /><dc:title /></cc:Work></rdf:RDF></metadata><defs
   id="defs3690" /><sodipodi:namedview
   pagecolor="#ffffff"
   bordercolor="#666666"
   borderopacity="1"
   objecttolerance="10"
   gridtolerance="10"
   guidetolerance="10"
   inkscape:pageopacity="0"
   inkscape:pageshadow="2"
   inkscape:window-width="1024"
   inkscape:window-height="705"
   id="namedview3688"
   showgrid="false"
   inkscape:zoom="7.9"
   inkscape:cx="22.756816"
   inkscape:cy="25.807209"
   inkscape:window-x="-8"
   inkscape:window-y="-8"
   inkscape:window-maximized="1"
   inkscape:current-layer="text3700" /><path
   d="M 49.238864,0 H 11.790989 C 5.2894399,0 0,6.058 0,13.504 v 30.835 c 0,7.445 5.2894399,13.503 11.790989,13.503 h 37.448748 c 6.50155,0 11.790992,-6.058 11.790992,-13.503 V 13.504 C 61.03012,6.058 55.741287,0 49.238864,0 Z m 0,53.963 H 11.790989 c -4.6327358,0 -8.403547,-4.317 -8.403547,-9.624 V 13.504 c 0,-5.308 3.7708112,-9.625 8.403547,-9.625 h 37.448748 c 4.632736,0 8.403547,4.317 8.403547,9.625 v 30.835 c -9.13e-4,5.307 -3.771684,9.624 -8.40442,9.624 z"
   id="path3680"
   inkscape:connector-curvature="0"
   style="fill:#800080;fill-opacity:1;stroke-width:0.93449306" /><text
   xml:space="preserve"
   style="font-style:normal;font-weight:normal;font-size:40px;line-height:1.25;font-family:sans-serif;letter-spacing:0px;word-spacing:0px;fill:#000000;fill-opacity:1;stroke:none"
   x="8.728426"
   y="47.74691"
   id="text3696"><tspan
     sodipodi:role="line"
     id="tspan3694"
     x="8.728426"
     y="83.137535" /></text>


<g
   aria-label="中古"
   transform="scale(0.83443068,1.1984219)"
   style="font-style:normal;font-weight:normal;font-size:33.37722778px;line-height:1.25;font-family:sans-serif;letter-spacing:0px;word-spacing:0px;fill:#000000;fill-opacity:1;stroke:none;stroke-width:0.83443069"
   id="text3700"><path
     d="m 22.140666,17.63892 q 4.824053,-0.782279 5.867091,-1.303798 1.173418,-0.651899 2.086077,-0.13038 0.912658,0.521519 1.955697,1.303798 1.043038,0.651899 0.13038,1.303798 -0.912659,0.651899 -2.346837,4.954432 1.955697,1.694937 -0.521519,1.825317 -2.477216,0.13038 -7.301268,0.651899 0,9.908865 -0.26076,11.864562 -0.26076,2.086076 -0.782279,2.216456 -0.521519,0.13038 -0.651899,-2.607596 -0.13038,-2.607596 -0.13038,-11.343042 -2.477216,0.13038 -5.99747,0.651899 -0.13038,1.303798 -0.39114,1.694937 -0.130379,0.39114 -0.521519,0.13038 -0.260759,-0.26076 -0.521519,-1.564558 -0.26076,-1.434177 -0.912659,-4.172153 -0.521519,-2.737976 -1.303798,-3.781014 -0.6518987,-1.173418 0.13038,-1.173418 0.782279,0 1.564558,0.260759 0.912658,0.26076 3.129115,0 2.346836,-0.260759 4.824052,-0.651899 0,-5.345571 -0.912658,-6.518989 -0.782279,-1.173419 0.521519,-0.912659 1.303798,0.13038 2.477216,0.782279 1.173418,0.521519 0.521519,1.303798 -0.521519,0.651899 -0.651899,5.215192 z m -0.130379,7.170888 q 2.868355,-0.260759 6.25823,-0.782278 0.391139,-2.346837 0.391139,-3.781014 0.13038,-1.434178 -0.260759,-1.955697 -0.39114,-0.52152 -1.825318,-0.26076 -1.434177,0.13038 -4.432913,0.521519 -0.130379,3.650634 -0.130379,6.25823 z M 13.5356,19.594617 q 0.260759,3.129115 0.651899,6.25823 2.477216,-0.26076 5.99747,-0.782279 v -6.25823 q -4.824052,0.521519 -6.649369,0.782279 z"
     style="font-style:normal;font-variant:normal;font-weight:normal;font-stretch:normal;font-family:KaiTi;-inkscape-font-specification:KaiTi;fill:#800080;fill-opacity:1;stroke-width:0.83443069"
     id="path4494"
     inkscape:connector-curvature="0" /><path
     d="m 50.333067,20.768035 q 4.172153,-0.39114 6.25823,-0.651899 2.086077,-0.26076 3.389875,-0.521519 1.434177,-0.26076 2.346836,0.260759 1.043038,0.39114 1.564558,1.303798 0.521519,0.782279 -2.216457,0.651899 -2.607596,-0.26076 -5.215192,0 -2.477216,0.13038 -6.25823,0.391139 -0.26076,1.694938 -1.043038,6.38861 2.737975,-0.391139 3.650634,-0.782278 1.043038,-0.39114 2.346836,0.130379 1.303798,0.52152 2.477216,1.434178 1.303798,0.912659 0,1.825317 -1.173418,0.912659 -2.346836,3.781014 1.825317,1.955697 0.13038,1.825318 -1.564558,-0.13038 -10.039245,0.260759 -0.521519,1.694938 -1.173418,1.043039 -0.521519,-0.651899 -0.912658,-3.911394 -0.39114,-3.259495 -1.173418,-4.302534 -0.782279,-1.173418 0.130379,-1.043038 0.912659,0 1.825318,0.26076 0.912658,0.130379 3.259494,-0.26076 0.39114,-2.607596 0.782279,-6.51899 -3.781014,0.39114 -5.606331,0.782279 -1.825317,0.26076 -2.868356,0.391139 -1.043038,0.13038 -1.825317,0 -0.782278,-0.260759 -1.694937,-1.043038 -0.912659,-0.912659 0.782279,-0.782279 1.694937,0.13038 4.432913,-0.13038 2.737976,-0.260759 7.170889,-0.651899 0.391139,-3.781014 0.391139,-5.606331 0.13038,-1.955697 -0.521519,-3.389874 -0.651899,-1.434178 0.651899,-1.043039 1.434178,0.26076 2.477216,0.912659 1.043038,0.651899 0.391139,1.434178 -0.521519,0.782278 -1.564557,7.562028 z m -5.345572,9.648105 q 0.13038,2.346836 0.26076,5.475951 4.432913,-0.391139 8.213927,-0.782279 0.521519,-2.086076 0.651899,-3.520254 0.260759,-1.434178 -0.13038,-1.955697 -0.26076,-0.521519 -2.737976,-0.13038 -2.346836,0.26076 -6.25823,0.912659 z"
     style="font-style:normal;font-variant:normal;font-weight:normal;font-stretch:normal;font-family:KaiTi;-inkscape-font-specification:KaiTi;fill:#800080;fill-opacity:1;stroke-width:0.83443069"
     id="path4496"
     inkscape:connector-curvature="0" /></g>
</svg>