<?xml version="1.0" encoding="UTF-8" standalone="no"?>
<svg
   xmlns:dc="http://purl.org/dc/elements/1.1/"
   xmlns:cc="http://creativecommons.org/ns#"
   xmlns:rdf="http://www.w3.org/1999/02/22-rdf-syntax-ns#"
   xmlns:svg="http://www.w3.org/2000/svg"
   xmlns="http://www.w3.org/2000/svg"
   xmlns:sodipodi="http://sodipodi.sourceforge.net/DTD/sodipodi-0.dtd"
   xmlns:inkscape="http://www.inkscape.org/namespaces/inkscape"
   version="1.1"
   x="0px"
   y="0px"
   viewBox="0 0 61.030727 57.841999"
   enable-background="new 0 0 100 100"
   xml:space="preserve"
   id="svg3686"
   sodipodi:docname="lang_tz.svg"
   inkscape:version="0.92.1 r15371"
   width="61.030727"
   height="57.841999"><metadata
   id="metadata3692"><rdf:RDF><cc:Work
       rdf:about=""><dc:format>image/svg+xml</dc:format><dc:type
         rdf:resource="http://purl.org/dc/dcmitype/StillImage" /><dc:title></dc:title></cc:Work></rdf:RDF></metadata><defs
   id="defs3690" /><sodipodi:namedview
   pagecolor="#ffffff"
   bordercolor="#666666"
   borderopacity="1"
   objecttolerance="10"
   gridtolerance="10"
   guidetolerance="10"
   inkscape:pageopacity="0"
   inkscape:pageshadow="2"
   inkscape:window-width="1097"
   inkscape:window-height="646"
   id="namedview3688"
   showgrid="false"
   inkscape:zoom="3.95"
   inkscape:cx="35.446669"
   inkscape:cy="21.308666"
   inkscape:window-x="71"
   inkscape:window-y="38"
   inkscape:window-maximized="0"
   inkscape:current-layer="svg3686" /><path
   d="M 49.238864,0 H 11.790989 C 5.2894399,0 0,6.058 0,13.504 v 30.835 c 0,7.445 5.2894399,13.503 11.790989,13.503 h 37.448748 c 6.50155,0 11.790992,-6.058 11.790992,-13.503 V 13.504 C 61.03012,6.058 55.741287,0 49.238864,0 Z m 0,53.963 H 11.790989 c -4.6327358,0 -8.403547,-4.317 -8.403547,-9.624 V 13.504 c 0,-5.308 3.7708112,-9.625 8.403547,-9.625 h 37.448748 c 4.632736,0 8.403547,4.317 8.403547,9.625 v 30.835 c -9.13e-4,5.307 -3.771684,9.624 -8.40442,9.624 z"
   id="path3680"
   inkscape:connector-curvature="0"
   style="fill:#003380;fill-opacity:1;stroke-width:0.93449306" /><text
   xml:space="preserve"
   style="font-style:normal;font-weight:normal;font-size:40px;line-height:1.25;font-family:sans-serif;letter-spacing:0px;word-spacing:0px;fill:#000000;fill-opacity:1;stroke:none"
   x="8.728426"
   y="47.74691"
   id="text3696"><tspan
     sodipodi:role="line"
     id="tspan3694"
     x="8.728426"
     y="83.137535" /></text>


<g
   aria-label="通字"
   transform="scale(0.83443068,1.1984219)"
   style="font-style:normal;font-weight:normal;font-size:33.37722778px;line-height:1.25;font-family:sans-serif;letter-spacing:0px;word-spacing:0px;fill:#003380;fill-opacity:1;stroke:none;stroke-width:0.83443069"
   id="text3700"><path
     d="m 26.495672,19.724996 q 0.651899,1.043039 0.391139,1.564558 -0.13038,0.391139 -0.260759,1.303798 0.391139,-0.13038 1.043038,-0.13038 0.651899,-0.13038 1.043038,0.26076 0.52152,0.391139 -0.260759,0.782278 -0.651899,0.39114 -1.825317,0.651899 -0.13038,1.043039 -0.13038,2.216457 0.651899,-0.13038 1.434178,-0.26076 0.912658,-0.260759 1.434177,0.26076 0.52152,0.391139 -0.521519,0.782279 -1.043038,0.391139 -2.346836,0.651899 -0.13038,2.477216 -0.39114,3.650634 -0.130379,1.173418 -0.391139,1.694937 -0.26076,0.52152 -0.521519,0.13038 -0.13038,-0.521519 -0.13038,-1.694937 v -3.520255 q -1.434178,0 -2.216456,-0.260759 -0.651899,-0.39114 0.130379,-0.651899 0.912659,-0.26076 2.086077,-0.521519 v -2.216457 q -1.564557,0 -2.216456,-0.26076 -0.52152,-0.260759 0.260759,-0.521519 0.912659,-0.260759 1.955697,-0.521519 0,-1.694937 -0.260759,-2.998735 l -2.868356,0.521519 q 0,4.172153 -0.13038,6.25823 0,2.086077 -0.391139,3.781014 -0.26076,1.564558 -0.651899,1.694938 -0.26076,0.130379 -0.782279,-1.173419 -0.391139,-1.303798 0,-2.477216 0.391139,-1.303798 0.391139,-4.041773 0.13038,-2.868356 -0.521519,-4.041774 -0.521519,-1.303798 0.13038,-1.173418 0.651899,0.13038 1.173418,0.391139 0.651899,0.13038 4.302533,-0.651899 3.650635,-0.912658 4.041774,-1.173418 0.521519,-0.391139 1.303798,-0.13038 0.912659,0.13038 1.564558,0.521519 0.782278,0.39114 0.391139,1.043039 -0.26076,0.651899 -0.391139,2.216456 0,1.564558 0.260759,3.520255 0.26076,1.955697 0.39114,4.302533 0.260759,2.346836 -0.912659,4.172154 -1.043038,1.694937 -1.564557,0.521519 -0.39114,-1.303798 -1.825318,-2.216457 -1.434177,-1.043038 -0.130379,-0.782279 1.303798,0.13038 1.694937,0.13038 0.521519,-0.13038 0.651899,-0.782279 0.13038,-0.651899 0,-2.998735 0,-2.477216 -0.391139,-5.215192 -0.26076,-2.737975 -0.912659,-2.998735 -0.651899,-0.26076 -3.129115,0.391139 z M 14.500731,31.589558 q 7.953167,2.216456 9.908864,2.868355 1.955697,0.521519 4.563293,0.782279 2.737976,0.26076 5.606331,0.26076 2.868356,0 3.650634,0.130379 0.912659,0.13038 -1.694937,1.043039 -2.607596,0.782279 -4.432913,1.173418 -1.694937,0.391139 -2.868355,0.391139 -1.043039,0 -3.650635,-1.303798 -2.607596,-1.173418 -5.867091,-2.477216 -3.129115,-1.434177 -4.432913,-1.564557 -1.303798,-0.26076 -2.477216,0.260759 -1.043038,0.39114 -1.825317,0.912659 -0.651899,0.391139 -1.9556969,-0.651899 -1.1734182,-1.043038 0.1303802,-1.043038 1.3037967,0 4.4329127,-0.651899 0.260759,-1.303798 0,-2.346837 -0.26076,-1.173418 -0.651899,-1.955697 -0.26076,-0.912658 0,-1.825317 0.260759,-1.043038 0,-1.303798 -0.26076,-0.391139 -1.303798,0.13038 -0.912659,0.521519 -1.9556968,0 -0.9126587,-0.651899 -0.13038,-0.651899 0.9126578,-0.13038 1.9556968,-0.521519 1.043038,-0.39114 1.564558,-0.912659 0.521519,-0.521519 1.955697,0.26076 1.434178,0.782279 0.782279,1.303798 -0.52152,0.391139 -1.043039,1.303798 -0.521519,0.912658 -0.391139,1.564557 0.13038,0.651899 0.521519,1.564558 0.521519,0.912658 -0.391139,3.259495 z m 12.2557,-14.863297 q 1.303798,-1.564558 2.086077,-2.477216 0.782279,-1.043038 0.26076,-1.173418 -0.39114,-0.13038 -3.129115,0.651899 -2.607596,0.651899 -3.389875,1.043038 -0.782279,0.391139 -2.346836,-0.651899 -1.564558,-1.043038 0.391139,-0.912658 1.955697,0.130379 4.563293,-0.52152 2.737976,-0.651899 3.650634,-1.173418 0.912659,-0.521519 1.955697,0 1.173418,0.521519 2.086077,1.434178 0.912658,0.912659 -0.651899,1.303798 -1.434178,0.391139 -5.215192,3.129115 0.13038,0.912659 -0.26076,1.303798 -0.260759,0.391139 -1.434177,-0.391139 -1.043039,-0.782279 -1.825317,-1.434178 -0.651899,-0.782279 0.391139,-0.782279 1.173418,0 2.868355,0.651899 z m -12.9076,0.521519 q -2.086076,-1.825317 -2.216456,-2.346836 -0.13038,-0.651899 2.086077,-0.13038 2.346836,0.391139 2.216456,2.346836 0,1.825318 -2.086077,0.13038 z"
     style="font-style:normal;font-variant:normal;font-weight:normal;font-stretch:normal;font-family:KaiTi;-inkscape-font-specification:KaiTi;fill:#003380;fill-opacity:1;stroke-width:0.83443069"
     id="path4495"
     inkscape:connector-curvature="0" /><path
     d="m 52.471616,24.157909 q 0.391139,0.52152 1.043038,1.434178 2.346836,-0.260759 4.302533,-0.521519 2.086077,-0.391139 3.259495,-0.521519 1.173418,-0.26076 2.477216,0.13038 1.303798,0.260759 1.694938,1.043038 0.521519,0.782279 -1.043039,0.782279 -1.434177,-0.13038 -2.998735,0 -1.564558,0 -7.431648,0.521519 0.260759,1.564557 0.391139,4.041774 0.13038,2.477216 -0.26076,4.693672 -0.260759,2.216457 -1.694937,3.650635 -1.434178,1.434177 -2.086077,0 -0.521519,-1.434178 -2.737975,-2.737976 -2.086077,-1.173418 0.391139,-0.521519 2.607596,0.521519 3.259495,0.130379 0.782279,-0.521519 0.912659,-2.086076 0.260759,-1.694938 0.260759,-3.389875 0,-1.825317 -0.391139,-3.520255 -4.172154,0.39114 -6.77975,0.782279 -2.477216,0.39114 -3.781014,0.651899 -1.303798,0.26076 -2.086076,0.13038 -0.651899,-0.13038 -1.434178,-0.912659 -0.651899,-0.782278 0.13038,-0.651899 0.912658,0.13038 1.825317,0 0.912658,-0.130379 3.911394,-0.391139 2.998735,-0.391139 7.822787,-1.043038 -0.651899,-1.434178 -1.694937,-2.216457 -0.912659,-0.912658 2.216457,0 0.391139,-0.651899 0.651899,-1.303798 0.260759,-0.651899 0.521519,-1.434178 0.260759,-0.912658 0,-1.043038 -0.26076,-0.13038 -2.607596,0.782279 -2.216457,0.782279 -2.998736,1.173418 -0.651899,0.391139 -1.825317,-0.521519 -1.173418,-1.043038 0.26076,-0.912659 1.564557,0 3.650634,-0.651899 2.216457,-0.651899 3.129115,-1.043038 0.912659,-0.521519 1.825317,0 1.043039,0.391139 1.825318,1.173418 0.782278,0.651899 -0.13038,1.043038 -0.782279,0.39114 -1.564558,1.173419 -0.782279,0.651899 -2.216456,2.086076 z m 0.260759,-8.474686 q -3.911394,0.651899 -5.867091,1.043038 -1.825317,0.391139 -2.868355,0.391139 -0.651899,3.389875 -1.694937,4.172154 -1.043039,0.782279 -1.303798,-0.521519 -0.26076,-1.434178 0.391139,-2.216457 0.651899,-0.782279 1.043038,-2.086077 l 0.651899,-1.955697 q 0.26076,-0.651898 1.173419,1.564558 0.130379,0 1.564557,-0.13038 1.564558,-0.260759 5.345572,-0.912658 3.781014,-0.782279 4.954432,-1.043039 1.303798,-0.391139 2.086077,-0.521519 0.782279,-0.260759 1.825317,0.39114 1.173418,0.521519 2.477216,1.955696 1.434178,1.303798 0.26076,1.434178 -1.043039,0 -2.346837,0.521519 -1.303798,0.39114 -2.477216,1.043039 -1.043038,0.651899 -0.521519,-0.26076 0.651899,-0.912658 1.173418,-2.216456 0.521519,-1.303798 -0.391139,-1.564558 z M 49.47288,11.771829 q -1.564557,-1.564558 0.782279,-1.303798 2.346837,0.260759 2.737976,1.303798 0.391139,1.043038 0.13038,1.825317 -0.13038,0.651899 -1.043039,0.13038 -0.912658,-0.521519 -2.607596,-1.955697 z"
     style="font-style:normal;font-variant:normal;font-weight:normal;font-stretch:normal;font-family:KaiTi;-inkscape-font-specification:KaiTi;fill:#003380;fill-opacity:1;stroke-width:0.83443069"
     id="path4497"
     inkscape:connector-curvature="0" /></g>

</svg>